<mxfile host="app.diagrams.net" agent="Mozilla/5.0 (Windows NT 10.0; Win64; x64) AppleWebKit/537.36 (KHTML, like Gecko) Chrome/131.0.0.0 Safari/537.36 Edg/131.0.0.0" version="25.0.1">
  <diagram id="NnFnq1P_x7tXttblLPDn" name="第 1 页">
    <mxGraphModel dx="1213" dy="661" grid="1" gridSize="10" guides="1" tooltips="1" connect="1" arrows="1" fold="1" page="1" pageScale="1" pageWidth="827" pageHeight="1169" math="0" shadow="0">
      <root>
        <mxCell id="0" />
        <mxCell id="1" parent="0" />
        <mxCell id="GRctZvrV_054JgJD-H4I-6" value="" style="edgeStyle=orthogonalEdgeStyle;rounded=0;orthogonalLoop=1;jettySize=auto;html=1;fillColor=#dae8fc;strokeColor=#6c8ebf;" edge="1" parent="1" source="GRctZvrV_054JgJD-H4I-1" target="GRctZvrV_054JgJD-H4I-2">
          <mxGeometry relative="1" as="geometry" />
        </mxCell>
        <mxCell id="GRctZvrV_054JgJD-H4I-1" value="开始" style="rounded=0;whiteSpace=wrap;html=1;fillColor=#dae8fc;strokeColor=#6c8ebf;" vertex="1" parent="1">
          <mxGeometry x="80" y="80" width="80" height="40" as="geometry" />
        </mxCell>
        <mxCell id="GRctZvrV_054JgJD-H4I-7" value="" style="edgeStyle=orthogonalEdgeStyle;rounded=0;orthogonalLoop=1;jettySize=auto;html=1;fillColor=#dae8fc;strokeColor=#6c8ebf;" edge="1" parent="1" source="GRctZvrV_054JgJD-H4I-2" target="GRctZvrV_054JgJD-H4I-3">
          <mxGeometry relative="1" as="geometry" />
        </mxCell>
        <mxCell id="GRctZvrV_054JgJD-H4I-2" value="从数据库中读取数据" style="rounded=0;whiteSpace=wrap;html=1;fillColor=#dae8fc;strokeColor=#6c8ebf;" vertex="1" parent="1">
          <mxGeometry x="200" y="80" width="120" height="40" as="geometry" />
        </mxCell>
        <mxCell id="GRctZvrV_054JgJD-H4I-8" value="" style="edgeStyle=orthogonalEdgeStyle;rounded=0;orthogonalLoop=1;jettySize=auto;html=1;fillColor=#dae8fc;strokeColor=#6c8ebf;" edge="1" parent="1" source="GRctZvrV_054JgJD-H4I-3" target="GRctZvrV_054JgJD-H4I-4">
          <mxGeometry relative="1" as="geometry" />
        </mxCell>
        <mxCell id="GRctZvrV_054JgJD-H4I-3" value="数据映射到前端页面" style="rounded=0;whiteSpace=wrap;html=1;fillColor=#dae8fc;strokeColor=#6c8ebf;" vertex="1" parent="1">
          <mxGeometry x="360" y="80" width="120" height="40" as="geometry" />
        </mxCell>
        <mxCell id="GRctZvrV_054JgJD-H4I-9" value="" style="edgeStyle=orthogonalEdgeStyle;rounded=0;orthogonalLoop=1;jettySize=auto;html=1;fillColor=#dae8fc;strokeColor=#6c8ebf;" edge="1" parent="1" source="GRctZvrV_054JgJD-H4I-4" target="GRctZvrV_054JgJD-H4I-5">
          <mxGeometry relative="1" as="geometry" />
        </mxCell>
        <mxCell id="GRctZvrV_054JgJD-H4I-4" value="刷新前端页面" style="rounded=0;whiteSpace=wrap;html=1;fillColor=#dae8fc;strokeColor=#6c8ebf;" vertex="1" parent="1">
          <mxGeometry x="520" y="80" width="120" height="40" as="geometry" />
        </mxCell>
        <mxCell id="GRctZvrV_054JgJD-H4I-5" value="结束" style="rounded=0;whiteSpace=wrap;html=1;fillColor=#dae8fc;strokeColor=#6c8ebf;" vertex="1" parent="1">
          <mxGeometry x="680" y="80" width="80" height="40" as="geometry" />
        </mxCell>
      </root>
    </mxGraphModel>
  </diagram>
</mxfile>
